<?xml version="1.0" encoding="UTF-8" standalone="no"?>
<!-- Generator: Adobe Illustrator 16.0.0, SVG Export Plug-In . SVG Version: 6.00 Build 0)  -->

<svg
   xmlns:dc="http://purl.org/dc/elements/1.1/"
   xmlns:cc="http://creativecommons.org/ns#"
   xmlns:rdf="http://www.w3.org/1999/02/22-rdf-syntax-ns#"
   xmlns:svg="http://www.w3.org/2000/svg"
   xmlns="http://www.w3.org/2000/svg"
   xmlns:sodipodi="http://sodipodi.sourceforge.net/DTD/sodipodi-0.dtd"
   xmlns:inkscape="http://www.inkscape.org/namespaces/inkscape"
   version="1.1"
   id="圖層_1"
   x="0px"
   y="0px"
   width="200"
   height="200"
   viewBox="0 0 200.00001 200"
   enable-background="new 0 0 595.22 842"
   xml:space="preserve"
   inkscape:version="0.48.4 r9939"
   sodipodi:docname="Taiwan Sugar Corporation Seal.svg"><metadata
   id="metadata13"><rdf:RDF><cc:Work
       rdf:about=""><dc:format>image/svg+xml</dc:format><dc:type
         rdf:resource="http://purl.org/dc/dcmitype/StillImage" /></cc:Work></rdf:RDF></metadata><defs
   id="defs11" /><sodipodi:namedview
   pagecolor="#ffffff"
   bordercolor="#666666"
   borderopacity="1"
   objecttolerance="10"
   gridtolerance="10"
   guidetolerance="10"
   inkscape:pageopacity="0"
   inkscape:pageshadow="2"
   inkscape:window-width="1920"
   inkscape:window-height="1017"
   id="namedview9"
   showgrid="false"
   fit-margin-top="0"
   fit-margin-left="0"
   fit-margin-right="0"
   fit-margin-bottom="0"
   inkscape:zoom="3.1710632"
   inkscape:cx="105.30647"
   inkscape:cy="160.92686"
   inkscape:window-x="-8"
   inkscape:window-y="-8"
   inkscape:window-maximized="1"
   inkscape:current-layer="圖層_1" />
<path
   clip-rule="evenodd"
   d="m 153.86829,-2.4524957 0.26429,0.275958 c -0.10882,-0.0583 -0.21377,-0.112715 -0.31482,-0.171016 l 0.0505,-0.104942 z"
   id="path3"
   inkscape:connector-curvature="0"
   style="fill:#e77947;fill-rule:evenodd" />
<path
   clip-rule="evenodd"
   d="m 99.99806,0.48976629 c 53.672,0 97.18795,44.67030971 97.18795,99.75319371 0,55.08677 -43.51595,99.75708 -97.18795,99.75708 -53.67589,0 -97.19961,-44.67031 -97.19961,-99.75708 0,-55.082884 43.52372,-99.75319371 97.19961,-99.75319371"
   id="path5"
   inkscape:connector-curvature="0"
   style="fill:#ffffff;fill-rule:evenodd" />
<path
   clip-rule="evenodd"
   d="m 117.76435,83.002017 c 0.38479,-1.725645 1.79179,-7.703221 2.5808,-9.296723 0.92504,-1.861677 4.1899,-0.474164 4.23266,1.768398 -0.0155,1.080473 -1.79179,5.546165 -2.57691,8.527179 -1.06885,2.856649 -4.72239,1.869448 -4.23655,-0.998854 m -12.8379,2.755596 c -0.90561,-1.235942 -3.22211,-11.438238 -1.7296,-12.623648 3.16381,-2.487418 4.39202,6.506152 5.27819,8.328963 0.87063,2.098759 -1.18157,7.489461 -3.54859,4.294685 M 149.76,86.834191 c -1.98224,-0.50914 -2.48363,-0.582987 -1.9356,-2.673966 0.45864,-1.014403 2.5808,-1.387516 4.27542,-0.769549 1.1427,0.629624 1.19323,2.106537 0.31871,3.167576 -0.63742,0.466382 -1.87341,0.415864 -2.65853,0.275939 m -17.03947,-0.396424 c -1.05331,-1.162096 -0.60633,-5.701631 -0.62576,-6.778216 -0.0311,-3.999303 2.81011,-3.598983 6.22655,-3.645623 1.32927,-0.01555 3.45532,0.0583 3.7235,1.476904 0.44698,1.663461 -2.00556,1.546864 -3.48252,1.438039 -1.93171,0.06607 -5.10329,-0.06607 -5.2471,1.317554 -0.40033,3.57955 4.67575,2.724501 7.06998,2.638995 1.47696,-0.04664 2.51084,2.549605 1.62077,3.085955 -1.92393,0.971642 -8.15826,1.562409 -9.28542,0.466392 M 52.17172,93.212095 V 93.06829 c 1.5236,0.0155 3.0472,0.0389 4.58247,0.0544 -0.59856,0.0816 -0.59856,0.0816 -4.58247,0.0894 M 33.974,89.589785 c -0.13604,7.186312 41.96125,1.916096 44.34771,1.620707 3.31539,-0.155464 8.76849,-2.001593 9.68187,-0.338127 0.37313,0.656835 1.41866,4.034274 3.87508,2.895508 1.67519,-0.77732 3.00445,-3.198666 1.97835,-4.92042 -1.62466,-2.782802 -9.9073,-13.680802 -11.40758,-15.200458 -2.51084,-3.22587 -4.85843,0.260401 -2.09107,3.358014 0.28762,0.287608 2.78291,3.645621 3.04332,4.197518 1.05719,2.250335 1.77235,4.780507 0.87063,5.942592 -4.83511,0.928894 -10.16383,0.890036 -15.26712,0.975543 -6.89896,-0.0428 -13.73963,0 -20.43648,-0.314818 -2.75959,-0.851167 -0.98335,-2.401917 0.19822,-4.022622 2.37869,-3.750559 6.82901,-8.216251 6.82901,-12.674171 -0.0583,-3.389107 -4.64077,-3.389107 -5.53861,-1.51577 -1.65964,3.793312 -7.39647,15.215999 -9.35927,17.376945 -3.02777,0.0622 -6.7707,-0.858937 -6.72406,2.619559 m 118.40955,4.978727 c -1.62466,-0.0156 -4.0461,0.431414 -4.52028,-1.364197 0,-3.190887 4.97503,-3.152018 5.2782,-0.711242 0,0.295378 -0.0428,2.05212 -0.75792,2.075439 m -15.08444,23.813128 c 0.19822,-2.9266 -0.69184,-7.79261 0.54414,-10.89799 1.03388,-1.21263 3.80124,-0.64907 5.37537,-0.77732 3.82844,-0.3187 10.32707,-0.73457 11.29875,1.13099 0.33815,1.64015 0.30705,1.64015 0.45864,3.23754 0.23709,2.64288 0.78123,9.28506 -0.61022,9.35113 -3.35426,0.27207 -17.11721,1.02218 -17.06668,-2.04435 M 106.83484,88.528746 c -1.41866,0 -2.88396,-0.0738 -4.29874,0.0194 -1.79178,-0.0117 -1.75292,3.10927 -0.27207,3.264734 1.407,0.310928 2.37869,1.263141 2.24654,2.813891 -0.0505,4.726094 -0.80456,9.207329 -1.38368,13.680789 -0.44698,3.45518 -1.09606,4.8427 -1.44587,6.61498 -0.30317,1.46524 2.11439,2.46798 2.77513,0.84728 1.98613,-4.3219 3.02777,-9.71648 3.63411,-14.46201 0.25263,-1.935515 0.57523,-5.312962 1.27485,-6.898691 0.29928,-0.567438 0.90561,-0.443072 1.23209,0.252631 0.37313,3.062625 0.23709,14.79624 0.26819,18.6634 0.0622,2.93049 0.11271,5.87263 0.19045,8.82645 0.11271,1.4458 3.59523,4.41516 4.64465,0.43918 0.26819,-0.71125 0.11272,-10.71533 0.31483,-15.9117 0.0233,-3.86715 -0.40811,-7.905325 -0.19822,-11.620896 0.0661,-1.0144 0.78512,-1.232052 1.31371,-0.77732 0.33038,0.51692 0.57135,1.698445 0.60245,2.747824 0.33815,3.058732 0.80844,5.483972 1.13881,8.597132 0.33038,2.07932 2.76348,6.32347 4.31429,2.14927 0.63742,-2.18037 -3.11328,-13.346531 -0.49362,-14.885622 0.52082,-0.493601 2.2854,-0.843397 2.91506,-0.586877 0.69184,0.443073 0.73848,2.339729 0.51304,3.497935 -0.37312,5.965904 -0.58301,6.603304 -1.07274,9.378334 -0.38867,2.33195 -1.92393,8.83421 -2.53804,9.90303 -0.72682,1.81503 -2.87619,5.35961 -2.32427,6.92201 1.78013,4.17031 5.02944,-3.06652 5.96615,-4.66002 1.04942,-2.16094 3.85565,-8.95082 4.36092,-12.77522 0.47418,-2.61567 1.13104,-12.627525 2.5808,-13.812929 2.74015,0.272059 5.76403,-0.563559 8.60524,0.489711 0.6452,0.446952 1.02999,1.371957 -0.16713,2.499073 -0.75403,0.722902 -1.93948,0.855047 -3.11716,0.726792 -3.56026,-0.51303 -6.89508,0.310928 -4.82734,3.241408 1.06108,1.43805 6.9495,0.24486 8.3565,1.81893 0.58301,1.057145 0.34203,2.308625 -0.72294,2.378585 -2.6974,0.30316 -6.47919,-0.57133 -8.6752,1.32533 -2.03277,2.23479 -1.34482,12.62753 -1.42644,16.1449 -0.035,1.64013 0.81233,4.64448 2.91506,4.79993 0.88229,0.16324 15.477,0.22931 17.34652,0.35757 2.36314,0.22154 6.21879,0.57521 7.81624,-1.54297 1.51583,-2.44856 1.23209,-14.76905 0.48973,-18.62454 -0.59467,-2.65455 -7.81624,-2.262 -10.21824,-2.262 -1.80345,-0.31481 -2.1105,-0.99497 -1.46919,-2.456315 2.36314,-2.54183 6.70851,0.15157 9.64689,-2.29309 1.79179,-1.500222 0.73848,-4.146989 1.66352,-5.857093 0.90173,-0.959983 3.0783,-1.018291 3.11328,-2.234794 -0.14769,-3.587321 -1.5819,-2.040451 -3.35814,-3.645619 -0.18268,-1.951066 -0.1166,-4.547309 -1.15048,-5.534503 -2.57691,-2.250336 -9.67409,-0.598535 -9.81402,-1.539089 -1.26319,-4.123673 11.52808,-0.02721 13.02058,-3.789426 0.40811,-1.212616 -0.59078,-2.771139 -1.56635,-2.658428 -1.99001,0.310927 -8.61691,0.691813 -10.54862,0.629627 -1.0533,-1.204842 -2.50306,-5.639442 -4.99446,-4.263589 -0.40033,0.272062 -0.88229,0.579102 -1.11938,1.018287 -1.5236,3.490158 -3.8984,3.085953 -6.82123,3.004334 -1.4653,-0.104938 -2.42144,0.388659 -3.43976,-0.761772 -0.72683,-1.0144 -1.15048,-1.360306 -2.08718,-1.834471 -6.23434,-1.352533 -4.57858,6.31571 -4.57858,9.903032 0.0661,0.563557 0.77346,8.597141 0.0428,8.89252 -2.05609,0.419753 -4.7768,-0.198213 -6.9184,-0.237081 -1.95503,-0.0272 -2.55359,0.338137 -3.14437,-1.56241 -0.32649,-3.587324 -0.19434,-8.165727 -0.33815,-11.578153 0.16324,-2.681748 0.14381,-4.384075 -1.21266,-4.889331 -2.6391,-0.687927 -3.73127,1.764511 -3.74682,2.911056 0.24875,4.41128 0.1749,8.880859 0.24875,13.439833 -0.92116,2.394137 -1.67907,1.756732 -4.06164,1.756732 m -6.51418,84.397313 12.869,26.19172 C 108.87543,199.70073 104.47175,200 100.002,200 c -4.27542,0 -8.48087,-0.26818 -12.6047,-0.78898 l 12.92341,-26.285 z M 100.00195,5.6860762 c 51.95017,0 94.31953,42.3677208 94.31953,94.3197738 0,47.21818 -35.01176,86.51549 -80.40111,93.27428 l 2.61189,5.33239 c 47.25499,-7.92475 83.46775,-49.16536 83.46775,-98.60667 C 200.00001,44.925092 155.07706,-5.0149265e-6 100.00195,-5.0149265e-6 44.92295,-5.0149265e-6 0,44.925092 0,100.00585 c 0,49.64342 36.50038,91.03172 84.04299,98.70773 l 2.63132,-5.34795 C 40.99345,186.85559 5.67853,147.43002 5.67853,100.00585 5.67453,48.053797 48.04789,5.6860762 100.00195,5.6860762 m 0,9.7708878 c 46.55926,0 84.53661,37.983648 84.53661,84.548886 0,43.39378 -32.979,79.32142 -75.16568,84.01642 l 2.72849,5.56559 c 44.11062,-5.95037 78.30228,-43.90292 78.30228,-89.58201 0,-49.787221 -40.61644,-90.405977 -90.40559,-90.405977 -49.80081,0 -90.40947,40.618756 -90.40947,90.405977 0,45.89285 34.49871,83.97755 78.90083,89.66363 l 2.74015,-5.58502 C 48.75139,179.68095 15.44591,143.60561 15.44591,100.00585 15.44991,53.440612 53.43102,15.456964 100.00195,15.456964 m 0,9.67761 c 41.23443,0 74.87028,33.630666 74.87028,74.871276 0,39.61212 -31.05506,72.22061 -70.07016,74.70415 l 2.81012,5.72106 c 40.9507,-3.85938 73.18343,-38.49668 73.18343,-80.42521 0,-44.509232 -36.29438,-80.79444 -80.78978,-80.79444 -44.4993,0 -80.79757,36.285208 -80.79757,80.79444 0,42.13841 32.55534,76.9195 73.79755,80.4835 l 2.82954,-5.74048 c -39.31438,-2.1765 -70.7037,-34.90936 -70.7037,-74.74302 -0.008,-41.24061 33.6242,-74.871276 74.87029,-74.871276 M 48.37049,100.74819 h 33.28216 c 1.8462,0 3.35425,1.40305 3.35425,3.11704 v 12.90737 c 0,1.71787 -1.51194,3.11316 -3.35425,3.11316 H 48.37049 c -1.84621,0 -3.34649,-1.39529 -3.34649,-3.11316 v -12.90737 c 0,-1.71399 1.50417,-3.11704 3.34649,-3.11704 m -4.49308,-3.509591 h 42.27997 c 2.33593,0 4.24432,1.912206 4.24432,4.255811 v 17.65678 c 0,2.33972 -1.90839,4.24415 -4.24432,4.24415 H 43.87741 c -2.33593,0 -4.24432,-1.90443 -4.24432,-4.24415 v -17.65678 c 0,-2.343605 1.91228,-4.255811 4.24432,-4.255811"
   id="path7"
   inkscape:connector-curvature="0"
   style="fill:#e03d42;fill-rule:evenodd" />
</svg>